<svg width="64" height="72" viewBox="0 0 64 72" fill="none" xmlns="http://www.w3.org/2000/svg">
<g filter="url(#filter0_d)">
<path fill-rule="evenodd" clip-rule="evenodd" d="M33.8567 0C19.5478 0 7.88684 11.4795 7.71532 25.6567L4.60301 34.6758C3.74839 37.1533 3.80442 39.334 4.75683 40.6592C5.32789 41.4531 6.20905 41.9082 7.17523 41.9082H7.71336V45.0542C7.71336 48.8564 10.8271 51.9497 14.654 51.9497C16.4001 51.9497 17.8204 53.3613 17.8204 55.0957V57.104C17.8204 60.9062 20.9337 64 24.7606 64H38.9102C42.7371 64 45.8508 60.9062 45.8508 57.104V49.0562C49.8591 46.998 53.2638 43.9473 55.748 40.1758C58.5296 35.9526 60 31.0425 60 25.9746C60 11.6523 48.2722 0 33.8567 0ZM43.1759 46.1812C42.5056 46.4868 42.0761 47.1528 42.0761 47.8853V57.104C42.0761 58.8389 40.6558 60.25 38.9102 60.25H24.7606C23.0149 60.25 21.5947 58.8389 21.5947 57.104V55.0957C21.5947 51.2935 18.4809 48.2002 14.654 48.2002C12.9079 48.2002 11.4876 46.7886 11.4876 45.0542V40.0332C11.4876 38.998 10.6429 38.1582 9.6005 38.1582H7.78462C7.75267 37.7397 7.79789 36.981 8.17335 35.8921L11.3859 26.583C11.4532 26.3872 11.4876 26.1816 11.4876 25.9751C11.4876 13.7202 21.5224 3.75 33.8567 3.75C46.1909 3.75 56.2257 13.7202 56.2257 25.9751C56.2257 34.6338 51.1034 42.5654 43.1759 46.1812ZM49.8011 22.2388C49.5789 21.5601 48.9882 21.0654 48.2776 20.9629L39.4827 19.6934L35.5492 11.7749C35.2312 11.1348 34.5752 10.7295 33.8567 10.7295C33.1382 10.7295 32.4826 11.1348 32.1646 11.7749L28.2311 19.6934L19.4363 20.9629C18.7251 21.0654 18.1349 21.5601 17.9128 22.2388C17.6906 22.918 17.8759 23.6631 18.39 24.1611L24.7542 30.3252L23.2518 39.0283C23.1304 39.7319 23.4214 40.4429 24.0027 40.8623C24.5836 41.2817 25.3542 41.3369 25.9901 41.0049L33.8567 36.896L41.7232 41.0049C41.9994 41.1494 42.3012 41.2207 42.6014 41.2207H42.6088C43.6487 41.2178 44.491 40.3794 44.491 39.3457C44.491 39.2017 44.4748 39.0615 44.4438 38.9268L42.9592 30.3252L49.3234 24.1611C49.8379 23.6631 50.0227 22.918 49.8011 22.2388ZM39.6139 28.3276C39.1692 28.7583 38.9662 29.3789 39.0714 29.9873L40.0951 35.918L34.7349 33.1177C34.4597 32.9741 34.1584 32.9023 33.8567 32.9023C33.5554 32.9023 33.2537 32.9741 32.9785 33.1177L27.6183 35.918L28.642 29.9873C28.7471 29.3789 28.5442 28.7583 28.0994 28.3276L23.7629 24.1279L29.7556 23.2627C30.3704 23.1738 30.9016 22.7905 31.1768 22.2368L33.8567 16.8413L36.537 22.2368C36.8122 22.7905 37.3435 23.1738 37.9583 23.2627L43.9509 24.1279L39.6139 28.3276Z" fill="#4DB282"/>
</g>
<defs>
<filter id="filter0_d" x="0" y="0" width="64" height="72" filterUnits="userSpaceOnUse" color-interpolation-filters="sRGB">
<feFlood flood-opacity="0" result="BackgroundImageFix"/>
<feColorMatrix in="SourceAlpha" type="matrix" values="0 0 0 0 0 0 0 0 0 0 0 0 0 0 0 0 0 0 127 0" result="hardAlpha"/>
<feOffset dy="4"/>
<feGaussianBlur stdDeviation="2"/>
<feComposite in2="hardAlpha" operator="out"/>
<feColorMatrix type="matrix" values="0 0 0 0 0 0 0 0 0 0 0 0 0 0 0 0 0 0 0.25 0"/>
<feBlend mode="normal" in2="BackgroundImageFix" result="effect1_dropShadow"/>
<feBlend mode="normal" in="SourceGraphic" in2="effect1_dropShadow" result="shape"/>
</filter>
</defs>
</svg>
