<svg width="24" height="24" viewBox="0 0 24 24" fill="none" xmlns="http://www.w3.org/2000/svg">
<g filter="url(#filter0_d)">
<path fill-rule="evenodd" clip-rule="evenodd" d="M12 0C9.82667 0 9.556 0.00933333 8.70133 0.0493333C5.79467 0.182667 4.18133 1.79467 4.048 4.70133C4.00933 5.556 4 5.828 4 8C4 10.1733 4.00933 10.4453 4.048 11.2987C4.18133 14.204 5.79467 15.8187 8.70133 15.952C9.556 15.9907 9.82667 16 12 16C14.1733 16 14.4453 15.9907 15.3 15.952C18.2013 15.8187 19.8213 14.2067 19.952 11.2987C19.9907 10.4453 20 10.1733 20 8C20 5.828 19.9907 5.556 19.952 4.70133C19.8213 1.79867 18.2067 0.181333 15.3 0.0493333C14.4453 0.00933333 14.1733 0 12 0ZM12 1.44267C14.136 1.44267 14.3893 1.45067 15.2333 1.48933C17.4027 1.588 18.4133 2.616 18.5133 4.768C18.5507 5.612 18.5587 5.864 18.5587 8C18.5587 10.136 18.5507 10.3893 18.5133 11.232C18.4133 13.3827 17.404 14.4133 15.2333 14.512C14.3893 14.5493 14.1373 14.5587 12 14.5587C9.864 14.5587 9.61067 14.5507 8.768 14.512C6.59467 14.412 5.588 13.38 5.488 11.232C5.45067 10.3893 5.44133 10.136 5.44133 8C5.44133 5.864 5.45067 5.61067 5.488 4.768C5.58667 2.61467 6.59733 1.58667 8.768 1.488C9.61067 1.44933 9.864 1.44267 12 1.44267ZM7.892 8C7.892 5.73067 9.732 3.892 12 3.892C14.268 3.892 16.108 5.732 16.108 8C16.108 10.2693 14.268 12.108 12 12.108C9.732 12.108 7.892 10.2693 7.892 8ZM12 10.6667C10.5267 10.6667 9.33333 9.47333 9.33333 8C9.33333 6.528 10.5267 5.33333 12 5.33333C13.472 5.33333 14.668 6.52667 14.668 8C14.668 9.47333 13.472 10.6667 12 10.6667ZM15.3093 3.73067C15.3093 3.2 15.74 2.77067 16.2693 2.77067C16.8013 2.77067 17.2307 3.2 17.2307 3.73067C17.2307 4.26133 16.8 4.69067 16.2693 4.69067C15.7387 4.69067 15.3093 4.26 15.3093 3.73067Z" fill="white"/>
</g>
<defs>
<filter id="filter0_d" x="0" y="0" width="24" height="24" filterUnits="userSpaceOnUse" color-interpolation-filters="sRGB">
<feFlood flood-opacity="0" result="BackgroundImageFix"/>
<feColorMatrix in="SourceAlpha" type="matrix" values="0 0 0 0 0 0 0 0 0 0 0 0 0 0 0 0 0 0 127 0" result="hardAlpha"/>
<feOffset dy="4"/>
<feGaussianBlur stdDeviation="2"/>
<feComposite in2="hardAlpha" operator="out"/>
<feColorMatrix type="matrix" values="0 0 0 0 0 0 0 0 0 0 0 0 0 0 0 0 0 0 0.25 0"/>
<feBlend mode="normal" in2="BackgroundImageFix" result="effect1_dropShadow"/>
<feBlend mode="normal" in="SourceGraphic" in2="effect1_dropShadow" result="shape"/>
</filter>
</defs>
</svg>
