<svg width="102" height="30" viewBox="0 0 102 30" fill="none" xmlns="http://www.w3.org/2000/svg">
<path d="M21.52 27.8C19.8933 28.8133 17.5467 29.32 14.48 29.32C10.5333 29.32 7.22667 28.0533 4.56 25.52C1.92 22.96 0.6 19.6533 0.6 15.6C0.6 11.4933 1.88 8.14667 4.44 5.56C7.02667 2.97333 10.3867 1.68 14.52 1.68C17.56 1.68 19.8933 2.18667 21.52 3.2V9.12C19.52 7.89333 17.2933 7.28 14.84 7.28C12.68 7.28 10.8667 8.04 9.4 9.56C7.93333 11.0533 7.2 13.0667 7.2 15.6C7.2 18.08 7.93333 20.0533 9.4 21.52C10.8667 22.96 12.76 23.68 15.08 23.68C17.5867 23.68 19.7333 23.04 21.52 21.76V27.8ZM43.5313 29H37.6913V17C37.6913 15.8267 37.3979 14.9067 36.8113 14.24C36.2246 13.5733 35.4646 13.24 34.5313 13.24C34.1313 13.24 33.7446 13.3067 33.3713 13.44C33.0246 13.5467 32.6379 13.76 32.2113 14.08C31.7846 14.3733 31.4379 14.8933 31.1713 15.64C30.9046 16.36 30.7713 17.24 30.7713 18.28V29H24.9313V0.719999H30.7713V12.16C31.8113 9.73333 33.8379 8.52 36.8513 8.52C38.8246 8.52 40.4246 9.14667 41.6513 10.4C42.9046 11.6533 43.5313 13.5467 43.5313 16.08V29ZM52.8944 29H46.7344L49.0544 2.04H55.8144L59.5744 11.8C60.2144 13.4267 60.761 14.92 61.2144 16.28C61.6677 17.64 61.961 18.6 62.0944 19.16L62.2944 19.96C62.721 18.2 63.6544 15.48 65.0944 11.8L68.8944 2.04H75.6544L78.4544 29H72.2944L71.2944 18.56L70.7744 10.68C70.081 12.68 69.121 15.3067 67.8944 18.56L64.0944 28.72H60.4544L56.6944 18.56C56.081 16.9067 55.561 15.4267 55.1344 14.12C54.7077 12.8133 54.4277 11.9067 54.2944 11.4L54.0944 10.68C54.0944 12.5733 53.9744 15.2 53.7344 18.56L52.8944 29ZM91.3175 20.28H88.1975V29H82.0375V2.04H91.3175C94.3042 2.04 96.7175 2.88 98.5575 4.56C100.424 6.24 101.358 8.37333 101.358 10.96C101.358 13.92 100.384 16.2133 98.4375 17.84C96.5175 19.4667 94.1442 20.28 91.3175 20.28ZM90.5975 6.96H88.1975V15.4H90.2375C93.4908 15.4 95.1175 13.92 95.1175 10.96C95.1175 8.29333 93.6108 6.96 90.5975 6.96Z" fill="#333333"/>
</svg>
